<svg width="202" height="52" viewBox="0 0 202 52" fill="none" xmlns="http://www.w3.org/2000/svg">
<path d="M7.50372 21.5039L20.0037 0.00390625L24.5037 8.00391L17.0037 21.5039L23.5037 33.0039L18.5037 41.0039L7.50372 21.5039Z" fill="white"/>
<path d="M25.5037 10.0039L21.0037 18.0039L22.5037 20.0039H31.5037L25.5037 10.0039Z" fill="white"/>
<path d="M23.0037 29.5039L18.5037 21.5039H41.5037L54.0037 43.0039H45.0037L37.0037 29.5039H23.0037Z" fill="white"/>
<path d="M35.5037 31.0039H27.0037L19.5037 43.0039H4.50372L0.00372314 50.5039L24.5037 51.0039L35.5037 31.0039Z" fill="white"/>
<path d="M38.5037 35.0039H35.0037L30.5037 43.0039H43.0037L38.5037 35.0039Z" fill="white"/>
<path d="M16.0037 39.0039L11.5037 31.5039L5.00372 41.0039H14.5037L16.0037 39.0039Z" fill="white"/>
<path d="M71.2494 30.3519C71.2494 31.1439 71.0661 31.8332 70.6994 32.4199C70.3474 32.9919 69.7901 33.4392 69.0274 33.7619C68.2647 34.0699 67.2967 34.2239 66.1234 34.2239C65.2727 34.2239 64.5247 34.1726 63.8794 34.0699C63.2487 33.9672 62.6107 33.7839 61.9654 33.5199V30.5279C62.6694 30.8359 63.4027 31.0779 64.1654 31.2539C64.9427 31.4299 65.5881 31.5179 66.1014 31.5179C66.6587 31.5179 67.0621 31.4446 67.3114 31.2979C67.5607 31.1512 67.6854 30.9459 67.6854 30.6819C67.6854 30.4912 67.6194 30.3226 67.4874 30.1759C67.3701 30.0292 67.1207 29.8606 66.7394 29.6699C66.3727 29.4792 65.8227 29.2372 65.0894 28.9439C64.3707 28.6359 63.7767 28.3206 63.3074 27.9979C62.8527 27.6752 62.5081 27.2866 62.2734 26.8319C62.0534 26.3772 61.9434 25.8199 61.9434 25.1599C61.9434 24.0159 62.3834 23.1579 63.2634 22.5859C64.1581 21.9992 65.3387 21.7059 66.8054 21.7059C67.5827 21.7059 68.3161 21.7866 69.0054 21.9479C69.6947 22.1092 70.4061 22.3586 71.1394 22.6959L70.0834 25.2039C69.6874 25.0279 69.2914 24.8739 68.8954 24.7419C68.5141 24.6099 68.1474 24.5072 67.7954 24.4339C67.4434 24.3606 67.1134 24.3239 66.8054 24.3239C66.3947 24.3239 66.0794 24.3826 65.8594 24.4999C65.6394 24.6026 65.5294 24.7639 65.5294 24.9839C65.5294 25.1452 65.5881 25.2992 65.7054 25.4459C65.8374 25.5779 66.0794 25.7246 66.4314 25.8859C66.7981 26.0472 67.3261 26.2746 68.0154 26.5679C68.7047 26.8466 69.2914 27.1399 69.7754 27.4479C70.2594 27.7559 70.6261 28.1372 70.8754 28.5919C71.1247 29.0466 71.2494 29.6332 71.2494 30.3519ZM79.1663 31.2759C79.5476 31.2759 79.8996 31.2392 80.2223 31.1659C80.545 31.0926 80.875 30.9972 81.2123 30.8799V33.6079C80.8163 33.7839 80.3616 33.9306 79.8483 34.0479C79.335 34.1652 78.7263 34.2239 78.0223 34.2239C77.2743 34.2239 76.607 34.1066 76.0203 33.8719C75.4483 33.6226 74.9936 33.2046 74.6563 32.6179C74.3336 32.0166 74.1723 31.1879 74.1723 30.1319V24.6979H72.6323V23.1579L74.4803 21.9699L75.4923 19.4179H77.8683V21.9259H81.0803V24.6979H77.8683V29.9999C77.8683 30.4252 77.9856 30.7479 78.2203 30.9679C78.455 31.1732 78.7703 31.2759 79.1663 31.2759ZM88.9187 21.6839C90.488 21.6839 91.7053 22.0506 92.5707 22.7839C93.436 23.5026 93.8687 24.5732 93.8687 25.9959V34.0039H91.2947L90.5687 32.3759H90.4807C90.1433 32.8012 89.7913 33.1532 89.4247 33.4319C89.0727 33.7106 88.662 33.9086 88.1927 34.0259C87.738 34.1579 87.1733 34.2239 86.4987 34.2239C85.7947 34.2239 85.1567 34.0846 84.5847 33.8059C84.0273 33.5272 83.5873 33.1019 83.2647 32.5299C82.942 31.9579 82.7807 31.2319 82.7807 30.3519C82.7807 29.0612 83.228 28.1079 84.1227 27.4919C85.032 26.8759 86.3593 26.5312 88.1047 26.4579L90.1727 26.3919V26.0399C90.1727 25.4532 90.0187 25.0279 89.7107 24.7639C89.4173 24.4999 89.0067 24.3679 88.4787 24.3679C87.9507 24.3679 87.4007 24.4559 86.8287 24.6319C86.2567 24.7932 85.6773 24.9986 85.0907 25.2479L83.9687 22.7839C84.6287 22.4319 85.3767 22.1606 86.2127 21.9699C87.0487 21.7792 87.9507 21.6839 88.9187 21.6839ZM89.0507 28.5479C88.1267 28.5772 87.4813 28.7459 87.1147 29.0539C86.748 29.3472 86.5647 29.7506 86.5647 30.2639C86.5647 30.7186 86.6967 31.0486 86.9607 31.2539C87.2247 31.4592 87.562 31.5619 87.9727 31.5619C88.5887 31.5619 89.1093 31.3786 89.5347 31.0119C89.96 30.6306 90.1727 30.1172 90.1727 29.4719V28.5039L89.0507 28.5479ZM104.193 21.7059C105.469 21.7059 106.496 22.0579 107.273 22.7619C108.065 23.4512 108.461 24.5732 108.461 26.1279V34.0039H104.765V27.1619C104.765 26.3259 104.626 25.6952 104.347 25.2699C104.068 24.8446 103.628 24.6319 103.027 24.6319C102.132 24.6319 101.524 24.9692 101.201 25.6439C100.878 26.3039 100.717 27.2572 100.717 28.5039V34.0039H96.9989V21.9259H99.8149L100.321 23.4879H100.497C100.761 23.0919 101.076 22.7619 101.443 22.4979C101.81 22.2339 102.228 22.0359 102.697 21.9039C103.166 21.7719 103.665 21.7059 104.193 21.7059ZM114.65 18.5379C114.518 19.0659 114.349 19.6599 114.144 20.3199C113.939 20.9799 113.719 21.6399 113.484 22.2999C113.249 22.9599 113.007 23.5612 112.758 24.1039H110.118C110.221 23.6346 110.323 23.1506 110.426 22.6519C110.529 22.1386 110.624 21.6252 110.712 21.1119C110.815 20.5986 110.903 20.1072 110.976 19.6379C111.064 19.1539 111.13 18.7066 111.174 18.2959H114.496L114.65 18.5379ZM124.509 30.3519C124.509 31.1439 124.326 31.8332 123.959 32.4199C123.607 32.9919 123.05 33.4392 122.287 33.7619C121.525 34.0699 120.557 34.2239 119.383 34.2239C118.533 34.2239 117.785 34.1726 117.139 34.0699C116.509 33.9672 115.871 33.7839 115.225 33.5199V30.5279C115.929 30.8359 116.663 31.0779 117.425 31.2539C118.203 31.4299 118.848 31.5179 119.361 31.5179C119.919 31.5179 120.322 31.4446 120.571 31.2979C120.821 31.1512 120.945 30.9459 120.945 30.6819C120.945 30.4912 120.879 30.3226 120.747 30.1759C120.63 30.0292 120.381 29.8606 119.999 29.6699C119.633 29.4792 119.083 29.2372 118.349 28.9439C117.631 28.6359 117.037 28.3206 116.567 27.9979C116.113 27.6752 115.768 27.2866 115.533 26.8319C115.313 26.3772 115.203 25.8199 115.203 25.1599C115.203 24.0159 115.643 23.1579 116.523 22.5859C117.418 21.9992 118.599 21.7059 120.065 21.7059C120.843 21.7059 121.576 21.7866 122.265 21.9479C122.955 22.1092 123.666 22.3586 124.399 22.6959L123.343 25.2039C122.947 25.0279 122.551 24.8739 122.155 24.7419C121.774 24.6099 121.407 24.5072 121.055 24.4339C120.703 24.3606 120.373 24.3239 120.065 24.3239C119.655 24.3239 119.339 24.3826 119.119 24.4999C118.899 24.6026 118.789 24.7639 118.789 24.9839C118.789 25.1452 118.848 25.2992 118.965 25.4459C119.097 25.5779 119.339 25.7246 119.691 25.8859C120.058 26.0472 120.586 26.2746 121.275 26.5679C121.965 26.8466 122.551 27.1399 123.035 27.4479C123.519 27.7559 123.886 28.1372 124.135 28.5919C124.385 29.0466 124.509 29.6332 124.509 30.3519ZM138.075 21.6839C139.644 21.6839 140.862 22.0506 141.727 22.7839C142.592 23.5026 143.025 24.5732 143.025 25.9959V34.0039H140.451L139.725 32.3759H139.637C139.3 32.8012 138.948 33.1532 138.581 33.4319C138.229 33.7106 137.818 33.9086 137.349 34.0259C136.894 34.1579 136.33 34.2239 135.655 34.2239C134.951 34.2239 134.313 34.0846 133.741 33.8059C133.184 33.5272 132.744 33.1019 132.421 32.5299C132.098 31.9579 131.937 31.2319 131.937 30.3519C131.937 29.0612 132.384 28.1079 133.279 27.4919C134.188 26.8759 135.516 26.5312 137.261 26.4579L139.329 26.3919V26.0399C139.329 25.4532 139.175 25.0279 138.867 24.7639C138.574 24.4999 138.163 24.3679 137.635 24.3679C137.107 24.3679 136.557 24.4559 135.985 24.6319C135.413 24.7932 134.834 24.9986 134.247 25.2479L133.125 22.7839C133.785 22.4319 134.533 22.1606 135.369 21.9699C136.205 21.7792 137.107 21.6839 138.075 21.6839ZM138.207 28.5479C137.283 28.5772 136.638 28.7459 136.271 29.0539C135.904 29.3472 135.721 29.7506 135.721 30.2639C135.721 30.7186 135.853 31.0486 136.117 31.2539C136.381 31.4592 136.718 31.5619 137.129 31.5619C137.745 31.5619 138.266 31.3786 138.691 31.0119C139.116 30.6306 139.329 30.1172 139.329 29.4719V28.5039L138.207 28.5479ZM154.845 30.3519C154.845 31.1439 154.662 31.8332 154.295 32.4199C153.943 32.9919 153.386 33.4392 152.623 33.7619C151.86 34.0699 150.892 34.2239 149.719 34.2239C148.868 34.2239 148.12 34.1726 147.475 34.0699C146.844 33.9672 146.206 33.7839 145.561 33.5199V30.5279C146.265 30.8359 146.998 31.0779 147.761 31.2539C148.538 31.4299 149.184 31.5179 149.697 31.5179C150.254 31.5179 150.658 31.4446 150.907 31.2979C151.156 31.1512 151.281 30.9459 151.281 30.6819C151.281 30.4912 151.215 30.3226 151.083 30.1759C150.966 30.0292 150.716 29.8606 150.335 29.6699C149.968 29.4792 149.418 29.2372 148.685 28.9439C147.966 28.6359 147.372 28.3206 146.903 27.9979C146.448 27.6752 146.104 27.2866 145.869 26.8319C145.649 26.3772 145.539 25.8199 145.539 25.1599C145.539 24.0159 145.979 23.1579 146.859 22.5859C147.754 21.9992 148.934 21.7059 150.401 21.7059C151.178 21.7059 151.912 21.7866 152.601 21.9479C153.29 22.1092 154.002 22.3586 154.735 22.6959L153.679 25.2039C153.283 25.0279 152.887 24.8739 152.491 24.7419C152.11 24.6099 151.743 24.5072 151.391 24.4339C151.039 24.3606 150.709 24.3239 150.401 24.3239C149.99 24.3239 149.675 24.3826 149.455 24.4999C149.235 24.6026 149.125 24.7639 149.125 24.9839C149.125 25.1452 149.184 25.2992 149.301 25.4459C149.433 25.5779 149.675 25.7246 150.027 25.8859C150.394 26.0472 150.922 26.2746 151.611 26.5679C152.3 26.8466 152.887 27.1399 153.371 27.4479C153.855 27.7559 154.222 28.1372 154.471 28.5919C154.72 29.0466 154.845 29.6332 154.845 30.3519ZM165.974 30.3519C165.974 31.1439 165.791 31.8332 165.424 32.4199C165.072 32.9919 164.515 33.4392 163.752 33.7619C162.989 34.0699 162.021 34.2239 160.848 34.2239C159.997 34.2239 159.249 34.1726 158.604 34.0699C157.973 33.9672 157.335 33.7839 156.69 33.5199V30.5279C157.394 30.8359 158.127 31.0779 158.89 31.2539C159.667 31.4299 160.313 31.5179 160.826 31.5179C161.383 31.5179 161.787 31.4446 162.036 31.2979C162.285 31.1512 162.41 30.9459 162.41 30.6819C162.41 30.4912 162.344 30.3226 162.212 30.1759C162.095 30.0292 161.845 29.8606 161.464 29.6699C161.097 29.4792 160.547 29.2372 159.814 28.9439C159.095 28.6359 158.501 28.3206 158.032 27.9979C157.577 27.6752 157.233 27.2866 156.998 26.8319C156.778 26.3772 156.668 25.8199 156.668 25.1599C156.668 24.0159 157.108 23.1579 157.988 22.5859C158.883 21.9992 160.063 21.7059 161.53 21.7059C162.307 21.7059 163.041 21.7866 163.73 21.9479C164.419 22.1092 165.131 22.3586 165.864 22.6959L164.808 25.2039C164.412 25.0279 164.016 24.8739 163.62 24.7419C163.239 24.6099 162.872 24.5072 162.52 24.4339C162.168 24.3606 161.838 24.3239 161.53 24.3239C161.119 24.3239 160.804 24.3826 160.584 24.4999C160.364 24.6026 160.254 24.7639 160.254 24.9839C160.254 25.1452 160.313 25.2992 160.43 25.4459C160.562 25.5779 160.804 25.7246 161.156 25.8859C161.523 26.0472 162.051 26.2746 162.74 26.5679C163.429 26.8466 164.016 27.1399 164.5 27.4479C164.984 27.7559 165.351 28.1372 165.6 28.5919C165.849 29.0466 165.974 29.6332 165.974 30.3519ZM173.627 21.7059C174.771 21.7059 175.754 21.9186 176.575 22.3439C177.411 22.7546 178.049 23.3706 178.489 24.1919C178.944 24.9986 179.171 26.0032 179.171 27.2059V28.9219H171.537C171.566 29.7139 171.823 30.3446 172.307 30.8139C172.791 31.2832 173.48 31.5179 174.375 31.5179C175.152 31.5179 175.856 31.4446 176.487 31.2979C177.118 31.1512 177.77 30.9166 178.445 30.5939V33.3439C177.858 33.6519 177.228 33.8719 176.553 34.0039C175.878 34.1506 175.05 34.2239 174.067 34.2239C172.85 34.2239 171.764 34.0039 170.811 33.5639C169.872 33.1239 169.132 32.4492 168.589 31.5399C168.061 30.6159 167.797 29.4499 167.797 28.0419C167.797 26.6046 168.039 25.4239 168.523 24.4999C169.007 23.5612 169.689 22.8646 170.569 22.4099C171.449 21.9406 172.468 21.7059 173.627 21.7059ZM173.693 24.2799C173.121 24.2799 172.644 24.4632 172.263 24.8299C171.896 25.1819 171.676 25.7466 171.603 26.5239H175.761C175.761 26.0986 175.68 25.7172 175.519 25.3799C175.372 25.0426 175.145 24.7786 174.837 24.5879C174.529 24.3826 174.148 24.2799 173.693 24.2799ZM187.147 31.2759C187.528 31.2759 187.88 31.2392 188.203 31.1659C188.525 31.0926 188.855 30.9972 189.193 30.8799V33.6079C188.797 33.7839 188.342 33.9306 187.829 34.0479C187.315 34.1652 186.707 34.2239 186.003 34.2239C185.255 34.2239 184.587 34.1066 184.001 33.8719C183.429 33.6226 182.974 33.2046 182.637 32.6179C182.314 32.0166 182.153 31.1879 182.153 30.1319V24.6979H180.613V23.1579L182.461 21.9699L183.473 19.4179H185.849V21.9259H189.061V24.6979H185.849V29.9999C185.849 30.4252 185.966 30.7479 186.201 30.9679C186.435 31.1732 186.751 31.2759 187.147 31.2759ZM200.177 30.3519C200.177 31.1439 199.994 31.8332 199.627 32.4199C199.275 32.9919 198.718 33.4392 197.955 33.7619C197.192 34.0699 196.224 34.2239 195.051 34.2239C194.2 34.2239 193.452 34.1726 192.807 34.0699C192.176 33.9672 191.538 33.7839 190.893 33.5199V30.5279C191.597 30.8359 192.33 31.0779 193.093 31.2539C193.87 31.4299 194.516 31.5179 195.029 31.5179C195.586 31.5179 195.99 31.4446 196.239 31.2979C196.488 31.1512 196.613 30.9459 196.613 30.6819C196.613 30.4912 196.547 30.3226 196.415 30.1759C196.298 30.0292 196.048 29.8606 195.667 29.6699C195.3 29.4792 194.75 29.2372 194.017 28.9439C193.298 28.6359 192.704 28.3206 192.235 27.9979C191.78 27.6752 191.436 27.2866 191.201 26.8319C190.981 26.3772 190.871 25.8199 190.871 25.1599C190.871 24.0159 191.311 23.1579 192.191 22.5859C193.086 21.9992 194.266 21.7059 195.733 21.7059C196.51 21.7059 197.244 21.7866 197.933 21.9479C198.622 22.1092 199.334 22.3586 200.067 22.6959L199.011 25.2039C198.615 25.0279 198.219 24.8739 197.823 24.7419C197.442 24.6099 197.075 24.5072 196.723 24.4339C196.371 24.3606 196.041 24.3239 195.733 24.3239C195.322 24.3239 195.007 24.3826 194.787 24.4999C194.567 24.6026 194.457 24.7639 194.457 24.9839C194.457 25.1452 194.516 25.2992 194.633 25.4459C194.765 25.5779 195.007 25.7246 195.359 25.8859C195.726 26.0472 196.254 26.2746 196.943 26.5679C197.632 26.8466 198.219 27.1399 198.703 27.4479C199.187 27.7559 199.554 28.1372 199.803 28.5919C200.052 29.0466 200.177 29.6332 200.177 30.3519Z" fill="white"/>
</svg>
