<svg width="625" height="431" viewBox="0 0 625 431" fill="none" xmlns="http://www.w3.org/2000/svg">
<path opacity="0.12" d="M121.5 323H13.5C6.075 323 0.0674999 329.075 0.0674999 336.5L0 417.5C0 424.925 6.075 431 13.5 431H121.5C128.925 431 135 424.925 135 417.5V336.5C135 329.075 128.925 323 121.5 323ZM121.5 350L67.5 383.75L13.5 350V336.5L67.5 370.25L121.5 336.5V350Z" fill="#276ED8"/>
<g opacity="0.12">
<path d="M611.618 12H512.382C504.992 12 499 17.9752 499 25.3498V190.088V227.672C499 235.104 505.055 241.022 512.382 241.022H611.618C619.006 241.022 625 235.049 625 227.672V62.9335V25.3498C625 17.9099 618.937 12 611.618 12Z" fill="#276ED8"/>
<path d="M618.515 30.1938H505.489V222.827H618.515V30.1938Z" fill="white"/>
<path d="M585.303 24.1406H538.883C538.346 24.1406 537.91 23.7076 537.91 23.1703V22.6964C537.91 22.1612 538.344 21.7261 538.883 21.7261H585.303C585.84 21.7261 586.276 22.1591 586.276 22.6964V23.1703C586.274 23.7055 585.84 24.1406 585.303 24.1406Z" fill="white"/>
<path d="M618.515 211.434H505.489V222.829H618.515V211.434Z" fill="#84B5FF"/>
<path d="M618.515 30.1938H505.489V40.4161H618.515V30.1938Z" fill="#84B5FF"/>
</g>
<path opacity="0.12" d="M78.5753 16.8483C40.6846 26.1357 17.4686 64.6807 25.3461 96.8194C28.4707 109.567 39.3601 124.272 39.3601 124.272L34.9005 165.52L72.5618 140.845C84.9244 144.286 99.7369 144.27 113.713 140.845C151.604 131.557 170.663 95.2626 162.787 63.1312C154.911 30.9999 116.466 7.56089 78.5753 16.8483Z" fill="#276ED8"/>
</svg>
