<svg width="120" height="120" viewBox="0 0 120 120" fill="none" xmlns="http://www.w3.org/2000/svg">
<g clip-path="url(#clip0_3290_69)" filter="url(#filter0_d_3290_69)">
<path d="M46 0C33.134 0 22.6667 10.4673 22.6667 23.3333C22.6667 36.1993 33.134 46.6667 46 46.6667C58.866 46.6667 69.3333 36.1993 69.3333 23.3333C69.3333 10.4673 58.866 0 46 0Z" fill="#276ED8"/>
<path d="M81.3826 111.907C79.4973 111.473 78.3259 109.597 78.7553 107.711L85.7553 77.378C86.1939 75.4974 88.0746 74.3074 89.9506 74.7554C91.8359 75.1894 93.0073 77.0654 92.5779 78.9507L85.5779 109.284C85.1346 111.216 83.1979 112.35 81.3826 111.907Z" fill="#06B25F"/>
<path d="M100.833 107.333C99.8768 107.333 98.9248 106.941 98.2294 106.176C96.9368 104.734 97.0534 102.527 98.4908 101.229L107.269 93.3334L98.4908 85.4374C97.0534 84.1447 96.9368 81.9327 98.2294 80.4907C99.5268 79.0534 101.739 78.9414 103.176 80.2294L114.843 90.7294C115.58 91.3967 116 92.3394 116 93.3334C116 94.3274 115.58 95.27 114.843 95.9374L103.176 106.437C102.504 107.039 101.669 107.333 100.833 107.333Z" fill="#06B25F"/>
<path d="M70.5 107.333C69.6647 107.333 68.8294 107.039 68.1574 106.437L56.4907 95.9372C55.7533 95.2699 55.3333 94.3272 55.3333 93.3332C55.3333 92.3392 55.7533 91.3966 56.4907 90.7292L68.1574 80.2292C69.5947 78.9412 71.8067 79.0579 73.104 80.4906C74.3967 81.9326 74.28 84.1399 72.8427 85.4372L64.0647 93.3332L72.8427 101.229C74.28 102.522 74.3967 104.734 73.104 106.176C72.4087 106.941 71.4567 107.333 70.5 107.333Z" fill="#06B25F"/>
<path d="M47.1667 93.3333C47.1667 89.712 48.7113 86.2353 51.3993 83.8087L63.08 73.2947C65.4507 71.1667 68.4933 70.0047 71.662 70.0047C74.2893 70.0047 76.828 70.8353 78.9607 72.3053C80.5473 69.202 83.31 66.906 86.6093 65.9027C82.6287 59.9387 75.8527 56 68.1667 56H26.1667C13.9447 56 4 65.9447 4 78.1667V96.8333C4 98.7653 5.568 100.333 7.5 100.333H49.304C47.9507 98.2613 47.1667 95.844 47.1667 93.3333Z" fill="#276ED8"/>
</g>
<defs>
<filter id="filter0_d_3290_69" x="0" y="0" width="120" height="120" filterUnits="userSpaceOnUse" color-interpolation-filters="sRGB">
<feFlood flood-opacity="0" result="BackgroundImageFix"/>
<feColorMatrix in="SourceAlpha" type="matrix" values="0 0 0 0 0 0 0 0 0 0 0 0 0 0 0 0 0 0 127 0" result="hardAlpha"/>
<feOffset dy="4"/>
<feGaussianBlur stdDeviation="2"/>
<feComposite in2="hardAlpha" operator="out"/>
<feColorMatrix type="matrix" values="0 0 0 0 0 0 0 0 0 0 0 0 0 0 0 0 0 0 0.25 0"/>
<feBlend mode="normal" in2="BackgroundImageFix" result="effect1_dropShadow_3290_69"/>
<feBlend mode="normal" in="SourceGraphic" in2="effect1_dropShadow_3290_69" result="shape"/>
</filter>
<clipPath id="clip0_3290_69">
<rect width="112" height="112" fill="white" transform="translate(4)"/>
</clipPath>
</defs>
</svg>
