<svg width="516" height="484" viewBox="0 0 516 484" fill="none" xmlns="http://www.w3.org/2000/svg">
<g clip-path="url(#clip0_3242_485)">
<path d="M337.086 417.516C245.917 453.843 182.15 467.613 127.729 415.91C73.3078 364.207 63.0002 310.641 98.0843 282.196C109.003 273.391 46.1458 226.835 45.4552 172.987C45.0499 141.38 69.7099 115.715 92.8954 101.939C148.764 68.7443 194.507 127.955 218.258 117.337C228.628 112.775 279.417 51.6288 368.445 49.3785C444.525 47.4555 484.139 113.727 485.594 171.845C487.048 229.964 461.928 367.771 337.086 417.516Z" fill="url(#paint0_linear_3242_485)" fill-opacity="0.06"/>
<path d="M210.241 148.407V260.777C210.241 263.667 207.901 266.007 205.011 266.007H33.6557C30.766 266.007 28.4255 263.667 28.4255 260.777V148.407C28.4255 141.741 33.8331 136.325 40.5082 136.325H198.159C204.834 136.325 210.241 141.741 210.241 148.407Z" fill="white" stroke="#84B5FF" stroke-miterlimit="10"/>
<path d="M210.241 148.407V148.914H28.4255V148.407C28.4255 141.741 33.8331 136.325 40.5082 136.325H198.159C204.834 136.325 210.241 141.741 210.241 148.407Z" fill="#84B5FF"/>
<mask id="mask0_3242_485" style="mask-type:alpha" maskUnits="userSpaceOnUse" x="45" y="-19" width="441" height="469">
<path d="M337.086 417.516C245.916 453.843 182.15 467.613 127.728 415.91C73.3073 364.207 62.9997 310.641 98.0838 282.196C109.003 273.391 46.1453 226.835 45.4547 172.987C45.0494 141.38 69.7094 115.715 92.8949 101.939C148.764 68.7443 198.212 -7.5404 221.962 -18.1587C232.333 -22.7209 279.417 51.6289 368.445 49.3786C444.525 47.4556 484.139 113.727 485.593 171.846C487.048 229.964 461.928 367.771 337.086 417.516Z" fill="#84B5FF"/>
</mask>
<g mask="url(#mask0_3242_485)">
<path d="M424.448 127.531H399.767C398.795 127.531 398.001 126.746 398.001 125.765C398.001 124.794 398.787 124 399.767 124H424.448C425.42 124 426.214 124.785 426.214 125.765C426.214 126.737 425.42 127.531 424.448 127.531Z" fill="#66D6A0"/>
<path d="M424.447 136.344H399.766C398.794 136.344 398 135.559 398 134.578C398 133.607 398.786 132.812 399.766 132.812H424.447C425.419 132.812 426.213 133.598 426.213 134.578C426.213 135.55 425.419 136.344 424.447 136.344Z" fill="#66D6A0"/>
<path opacity="0.2" d="M374.801 301.98L391.74 298.794V283.607L374.801 280.686C373.5 274.447 371.031 268.606 367.632 263.429L377.35 249.171L366.597 238.418L352.552 248.348C347.374 244.949 341.56 242.507 335.294 241.206L332.108 224.267H316.921L314.001 241.206C307.761 242.507 301.92 244.976 296.743 248.374L282.512 238.657L271.759 249.41L281.689 263.455C278.29 268.632 275.847 274.474 274.546 280.713L257.607 283.899V299.086L274.546 302.006C275.847 308.272 278.317 314.087 281.715 319.264L271.998 333.495L282.751 344.248L296.822 334.318C302 337.717 307.841 340.186 314.08 341.46L317.266 358.4H332.453L335.374 341.46C341.64 340.159 347.454 337.69 352.631 334.292L366.862 344.009L377.615 333.256L367.686 319.211C371.058 314.06 373.5 308.246 374.801 301.98ZM324.674 322.795C307.31 322.795 293.238 308.697 293.238 291.36C293.238 274.022 307.31 259.924 324.674 259.924C342.038 259.924 356.11 273.996 356.11 291.36C356.11 308.724 342.038 322.795 324.674 322.795Z" fill="#84B5FF"/>
<mask id="mask1_3242_485" style="mask-type:alpha" maskUnits="userSpaceOnUse" x="88" y="-5" width="346" height="508">
<path d="M88.0002 249.005C88.0002 388.736 165.267 502.01 260.58 502.01C355.893 502.01 433.16 388.736 433.16 249.005C433.16 109.274 355.893 -4.00049 260.58 -4.00049C165.267 -4.00049 88.0002 109.274 88.0002 249.005Z" fill="#C4C4C4"/>
</mask>
<g mask="url(#mask1_3242_485)">
<path d="M146.668 334C136.909 334 129 341.908 129 351.667C129 361.427 136.909 369.335 146.668 369.335C156.427 369.335 164.336 361.427 164.336 351.667C164.336 341.908 156.427 334 146.668 334ZM146.668 364.933C139.334 364.933 133.394 358.993 133.394 351.659C133.394 344.325 139.334 338.385 146.668 338.385C154.002 338.385 159.942 344.325 159.942 351.659C159.942 358.993 154.002 364.933 146.668 364.933Z" fill="#66D6A0"/>
<path d="M268.589 276.955C287.374 292.61 314.638 298.95 335.64 286.837C342.228 283.047 348.293 276.99 349.598 269.198C351.163 259.811 345.587 250.106 347.935 240.897C349.989 232.751 357.49 227.756 363.067 221.735C371.155 213.022 375.851 200.873 375.818 188.653C375.785 176.433 371.089 164.319 362.969 155.642C356.088 148.274 347.119 143.528 339.227 137.365C332.998 132.477 327.389 126.137 324.421 118.451C321.486 110.871 323.9 106.408 324.323 98.9698C325.204 83.0662 321.519 65.2855 310.985 53.4552C297.353 38.083 277.101 38.331 259.197 42.298C250.131 44.2815 240.119 47.363 232.162 52.6052C228.77 54.8366 226.52 57.5639 224.204 61.1414C223.454 62.2748 219.28 73.5737 219.443 73.5383C192.897 80.1264 207.148 120.08 198.995 138.427C196.419 144.201 191.918 148.664 187.972 153.445C181.058 161.875 175.645 172.005 173.949 183.127C172.253 194.249 174.568 206.363 181.45 214.793C182.558 216.174 183.863 217.52 184.287 219.291C184.939 221.947 183.569 224.604 182.558 227.119C176.525 242.172 183.439 259.599 192.146 273.023C197.984 282.055 204.865 290.627 213.801 295.869C228.052 304.263 246.054 302.953 260.73 295.444" fill="url(#paint1_radial_3242_485)"/>
<g opacity="0.26">
<path opacity="0.42" d="M268.252 70.6276C259.097 65.8857 247.412 71.1584 241.752 80.1821C236.126 89.2059 228.802 97.2388 230.134 107.961C230.799 113.269 231.898 118.683 230.899 123.956C228.369 137.616 220.446 147.595 212.19 158.388C205.198 167.518 202.935 179.656 201.137 191.263C200.072 198.199 199.206 205.842 202.668 211.823C207.063 219.395 212.09 229.162 216.817 236.488C224.607 248.484 220.046 260.197 229.468 270.813C232.264 273.927 236.193 275.555 240.054 276.864C247.878 279.448 255.967 280.969 264.157 281.429C271.148 281.819 278.239 281.359 284.831 278.917C301.01 272.866 311.83 253.544 308.9 235.567C306.67 221.943 297.848 210.619 293.653 197.491C290.657 188.078 296.516 213.223 298.547 203.527C308.9 205.587 308.9 140.18 298.547 131.494" fill="#005E30"/>
</g>
<path d="M286.722 286.095C287.665 282.352 306.631 187.399 306.631 187.399C306.631 187.399 256.056 172.46 223.693 187.399L244.419 286.913L286.722 286.095Z" fill="white"/>
<path d="M289.208 237.814C289.208 237.814 251.183 241.745 240.678 233.882C240.678 233.882 253.793 265.334 289.208 237.814Z" fill="#F4F4F4"/>
<path opacity="0.83" d="M265.341 322.678C266.01 322.095 268.326 320.073 270.476 318.122C273.017 315.802 274.619 313.743 274.619 313.743C274.619 313.743 274.99 309.459 275.176 308.274C275.364 307.078 284.498 279.59 290.486 271.578C296.073 264.105 299.064 217.528 299.447 211.236L299.486 210.533C299.486 210.533 295.362 216.946 291.888 230.448C288.408 243.96 286.025 271.285 286.025 271.285C286.025 271.285 279.952 292.73 273.402 292.108C273.402 292.108 276.58 307.366 273.296 314.255C272.668 315.565 266.533 321.565 265.341 322.678Z" fill="#CAC3CD" fill-opacity="0.3"/>
<path d="M250.33 181H256.16C256.16 181 254.302 186.02 256.608 187.278C261.541 189.969 261.989 189.969 268.716 189.969C272.71 189.969 275.443 181.896 275.443 181.896L280.376 182.793C280.376 182.793 275.171 192.276 268.716 194.453C264.236 195.964 260.74 196.753 256.608 194.453C251.818 191.786 250.33 181 250.33 181Z" fill="#CAC3CD" fill-opacity="0.3"/>
<path d="M288.356 288.917C288.356 288.917 319.116 353.362 306.567 558.459C306.567 558.459 293.326 561.258 289.143 559.843C289.143 559.843 251.18 381.605 260.396 292.125L288.356 288.917Z" fill="#47556B"/>
<path d="M242.254 290.978C242.254 290.978 211.494 355.422 224.043 560.519C224.043 560.519 237.284 563.319 241.467 561.903C241.467 561.903 279.43 383.666 270.214 294.186L242.254 290.978Z" fill="#47556B"/>
<path d="M290.15 295.066C290.15 295.066 266.278 302.174 242.029 292.613L241.715 283.052C241.715 283.052 254.138 286.795 264.737 286.165C275.305 285.536 289.616 283.681 289.616 283.681L290.15 295.066Z" fill="#8F99B6"/>
<path d="M284.612 281.824C284.612 281.824 288.638 297.392 284.927 299.248C281.184 301.104 278.983 300.286 278.983 300.286L279.014 283.05L284.612 281.824Z" fill="#47556B"/>
<path d="M246.244 280.595C246.244 280.595 243.728 295.157 246.905 297.862C251.214 301.51 251.434 298.554 251.434 298.554L251.843 281.821L246.244 280.595Z" fill="#47556B"/>
<path d="M256.937 283.391L258.195 296.758L271.562 296.444C271.562 296.444 272.191 284.932 272.191 283.077L256.937 283.391ZM259.736 286.379H269.706L269.392 293.644L260.365 294.179L259.736 286.379Z" fill="#EAEAEA"/>
<path d="M263.355 189.92C268.167 189.92 275.684 188.473 275.684 183.63L274.458 167.558L273.388 153.499C273.388 148.687 269.488 144.787 264.676 144.787C262.254 144.787 260.084 145.762 258.512 147.334C256.939 148.907 255.964 151.077 255.964 153.499L254.895 167.558L253.857 181.051C252.441 189.228 263.355 189.92 263.355 189.92Z" fill="#D8826C"/>
<path d="M303.927 110.254C303.927 110.254 314.338 96.0063 317.357 109.688C319.779 120.57 310.029 128.59 304.022 126.546C298.014 124.533 303.927 110.254 303.927 110.254Z" fill="#F0A98F"/>
<path d="M303.833 112.795C303.833 112.795 311.193 103.8 313.08 108.046C314.967 112.261 313.866 117.23 313.866 117.23C313.866 117.23 313.08 111.537 308.582 114.179C308.582 114.179 311.79 123.52 303.802 119.966C303.802 119.966 300.656 116.852 303.833 112.795Z" fill="#D8826C"/>
<path d="M302.23 126.956C302.23 128.214 303.237 129.221 304.463 129.221C305.69 129.221 306.696 128.214 306.696 126.956C306.696 125.73 305.69 124.723 304.463 124.723C303.237 124.723 302.23 125.73 302.23 126.956Z" fill="white"/>
<path d="M244.515 80.0217C249.044 74.612 253.228 68.2273 256.656 61.3394C268.387 78.512 285.591 95.6847 303.173 101.912C303.739 106.536 303.991 111.285 303.991 116.003C303.991 143.491 283.799 159.752 261.499 159.249C241.656 155.63 230.708 142.239 228.098 116.003C228.098 108.014 228.884 99.9622 230.708 92.5081C235.772 88.9855 240.458 84.8338 244.515 80.0217Z" fill="#F0A98F"/>
<path d="M253.384 108.764C253.384 114.079 249.043 118.419 243.728 118.419C238.413 118.419 234.072 114.11 234.072 108.764C234.072 103.448 238.381 99.1079 243.728 99.1079C249.075 99.1079 253.384 103.448 253.384 108.764Z" fill="white"/>
<path d="M238.254 108.171C238.254 112.574 241.116 116.128 244.638 116.128C248.161 116.128 251.023 112.574 251.023 108.171C251.023 103.768 248.161 100.214 244.638 100.214C241.116 100.214 238.254 103.768 238.254 108.171Z" fill="#7F5242"/>
<path d="M240.076 108.173C240.076 111.287 242.088 113.834 244.605 113.834C247.121 113.834 249.134 111.287 249.134 108.173C249.134 105.028 247.121 102.512 244.605 102.512C242.088 102.512 240.076 105.028 240.076 108.173Z" fill="#400404"/>
<path d="M239.796 102.786C239.796 103.635 240.834 104.327 242.123 104.327C243.413 104.327 244.451 103.635 244.451 102.786C244.451 101.937 243.413 101.245 242.123 101.245C240.865 101.245 239.796 101.937 239.796 102.786Z" fill="white"/>
<path d="M243.978 97.7299C237.625 97.1008 232.687 102.857 232.687 108.801C232.687 109.43 233.442 109.524 233.788 109.084C236.398 105.498 237.216 102.007 241.997 100.623C249.01 98.6105 252.848 105.813 253.256 111.443C253.319 112.009 254.043 111.978 254.106 111.443C254.703 104.712 251.086 98.4218 243.978 97.7299Z" fill="#390A0A"/>
<path d="M266.122 127.725C266.122 127.725 261.373 135.777 256.215 127.568L266.122 127.725Z" fill="#D8826C"/>
<path d="M271.058 108.764C271.058 114.079 275.367 118.419 280.714 118.419C286.029 118.419 290.338 114.11 290.338 108.764C290.338 103.448 286.029 99.1079 280.714 99.1079C275.367 99.1079 271.058 103.448 271.058 108.764Z" fill="white"/>
<path d="M274.676 108.171C274.676 112.574 277.381 116.128 280.715 116.128C284.048 116.128 286.722 112.574 286.722 108.171C286.722 103.768 284.017 100.214 280.715 100.214C277.349 100.214 274.676 103.768 274.676 108.171Z" fill="#7F5242"/>
<path d="M276.406 108.173C276.406 111.287 278.325 113.834 280.684 113.834C283.043 113.834 284.961 111.287 284.961 108.173C284.961 105.028 283.043 102.512 280.684 102.512C278.325 102.512 276.406 105.028 276.406 108.173Z" fill="#400404"/>
<path d="M276.124 102.825C276.124 103.675 277.13 104.367 278.326 104.367C279.552 104.367 280.527 103.675 280.527 102.825C280.527 101.976 279.521 101.284 278.326 101.284C277.13 101.253 276.124 101.945 276.124 102.825Z" fill="white"/>
<path d="M280.81 97.7299C287.194 97.1008 292.101 102.857 292.101 108.801C292.101 109.43 291.346 109.524 291.031 109.084C288.421 105.53 287.603 102.007 282.822 100.623C275.809 98.6105 271.972 105.813 271.563 111.474C271.531 112.009 270.776 112.009 270.714 111.474C270.084 104.712 273.701 98.4218 280.81 97.7299Z" fill="#390A0A"/>
<path d="M292.447 96.3713C292.447 96.3713 283.326 84.0736 269.236 94.5471C269.204 94.5471 280.59 90.018 292.447 96.3713Z" fill="#99360A"/>
<path d="M252.723 94.3644C252.723 94.3644 242.061 83.7337 230.581 96.3459C230.581 96.3459 240.489 89.9926 252.723 94.3644Z" fill="#99360A"/>
<path d="M248.225 134.799C248.351 135.145 250.584 140.24 254.233 144.297C258.636 149.172 265.02 151.908 272.097 141.435C273.607 139.233 275.116 136.371 276.658 132.849C276.658 132.849 274.204 134.453 270.619 135.459C264.989 137.063 256.623 140.051 250.804 136.906C249.861 136.906 249.012 135.428 248.225 134.799Z" fill="#712311"/>
<path d="M254.233 144.013C258.636 148.888 265.021 151.782 272.098 141.308C268.292 140.271 259.36 138.698 254.233 144.013Z" fill="#D5503B"/>
<path d="M250.836 135.675C260.083 145.991 266.814 140.55 270.651 134.826C265.021 136.398 256.623 138.034 250.836 135.675Z" fill="white"/>
<path d="M219.585 87.3063C228.903 90.6605 239.716 89.6453 248.163 84.6326C256.61 79.6198 262.484 70.6904 263.667 61.0575C264.014 58.385 263.668 55.1034 261.253 53.8025C260.416 53.3446 259.423 53.2319 258.458 53.1867C252.572 52.8748 246.767 54.8469 241.849 57.9969C236.932 61.1468 232.907 65.4099 229.298 69.9343C226.709 73.2069 224.34 76.66 222.78 80.5036C221.815 82.9311 221.176 85.4825 220.902 88.0633" fill="url(#paint2_radial_3242_485)"/>
<path d="M254.941 69.583C272.517 81.418 291.851 101.318 311.95 102.041C312.977 102.094 318.665 96.3448 319.157 95.5855C319.569 94.9239 319.256 94.0253 318.933 93.2305C315.525 85.3368 305.785 71.2844 298.087 66.1233C290.389 60.9623 281.775 57.3606 273.172 54.0388C268.8 52.3719 264.354 50.7334 259.842 50.2745C255.365 49.8186 250.743 50.64 247.98 53.3998" fill="url(#paint3_linear_3242_485)"/>
<path d="M157.299 247.953C157.299 247.953 152.802 246.978 151.103 244.745C149.374 242.543 148.336 241.568 142.265 238.895C136.227 236.253 133.836 232.825 133.836 232.825C133.836 232.825 129.622 236.693 138.869 241.128C144.53 243.833 125.911 243.455 120.312 242.826C120.312 242.826 117.073 244.588 122.419 247.198C127.798 249.809 122.64 249.997 133.239 254.464C143.838 258.961 156.419 261.32 158.998 254.904C161.545 248.519 157.299 247.953 157.299 247.953Z" fill="#FFBC9F"/>
<path d="M231.494 211.47C231.494 211.47 218.788 273.052 213 276.418C208.346 279.154 172.616 267.517 159.092 262.956C155.884 261.887 153.902 261.195 153.902 261.195L156.23 245.406L163.873 246.444L201.961 251.602C201.961 251.602 214.793 189.044 224.04 188.258C233.287 187.503 231.494 211.47 231.494 211.47Z" fill="white"/>
<path d="M306.848 187.83C306.848 187.83 338.612 243.425 335.582 266.155C335.582 266.155 325.63 276.806 279.422 289.822L278.594 278.692C278.594 278.692 307.709 259.11 317.159 254.706C317.159 254.706 290.008 216.531 293.018 208.578C295.998 200.617 301.843 186.945 306.848 187.83Z" fill="white"/>
<g filter="url(#filter0_d_3242_485)">
<path d="M284.611 283.423C284.488 283.735 284.363 284.044 284.239 284.354C282.948 287.542 280.065 290.025 276.707 289.975C271.863 289.902 266.724 289.386 261.975 288.659C258.028 288.054 254.198 286.559 250.153 286.675C245.429 286.812 240.787 286.272 236.313 285.27C234.424 284.847 232.444 284.418 230.613 283.854C229.693 283.569 228.743 283.343 227.838 283.029C227.303 282.845 226.213 282.494 226.27 281.748C226.274 281.692 226.283 281.631 226.255 281.588C226.232 281.549 226.188 281.532 226.144 281.516C225.261 281.182 224.341 280.865 223.547 280.381C222.883 279.975 223.197 279.11 223.443 278.443C223.583 278.063 224.198 276.302 225.243 275.972C223.427 275.173 221.493 274.564 219.691 273.715C219.687 273.714 219.683 273.712 219.682 273.71C219.945 271.836 220.771 269.982 222.133 268.48C225.203 269.568 228.275 270.658 231.343 271.748C232.973 272.327 234.707 272.911 236.513 272.554C233.718 271.938 231.11 270.786 228.865 269.174C226.977 267.818 225.307 266.133 223.207 265.107C223.226 265.019 223.251 264.931 223.272 264.842C223.326 264.709 223.384 264.576 223.447 264.448C223.797 263.73 224.232 263.084 224.732 262.422C225.038 262.015 225.362 261.621 225.702 261.239C226.22 260.887 226.796 260.582 227.399 260.312C230.432 262.268 233.508 264.17 236.863 265.618C241.07 267.434 245.761 268.523 250.612 267.943C251.594 267.826 252.573 267.493 253.425 266.918C258.016 263.837 251.77 257.501 249.74 255.133C249.81 255.02 249.887 254.91 249.975 254.802C250.941 253.602 252.61 252.896 254.035 252.4C254.764 252.146 255.505 251.938 256.246 251.746C256.301 251.829 256.357 251.916 256.418 252.006C257.468 253.5 259.607 256.229 260.82 257.591C263.167 260.225 266.403 261.897 268.232 265.028C270.74 269.319 271.652 273.279 277.365 274.065C278.093 274.166 278.818 274.265 279.546 274.365C283.872 274.957 286.274 279.206 284.611 283.423Z" fill="#84B5FF"/>
<path d="M247.043 270.662C240.852 271.465 233.929 269.571 229.326 266.21C228.109 265.32 226.94 264.368 225.671 263.547C224.506 262.796 225.193 262.041 225.136 262.212C225.48 260.727 228.811 261.403 230.656 262.545C233.306 264.184 234.838 265.312 237.411 266.612C239.209 267.52 242.304 268.167 244.292 268.715C246.274 269.262 246.734 268.948 248.889 268.752C252.738 268.402 251.545 267.843 253.483 266.412C253.483 266.412 252.322 262.504 252.192 262.064C251.688 260.379 247.839 258.533 248.504 256.735C248.582 256.527 248.689 256.355 248.824 256.149C249.965 255.755 249.618 255.739 250.002 255.848C249.719 255.582 250.386 255.957 250.002 255.848C251.2 256.972 252.118 258.282 253.001 259.665C254.388 261.838 255.686 266.119 253.486 268.789C251.867 270.756 249.385 270.358 247.043 270.662Z" fill="#06B25F"/>
<path d="M222.975 270.569C223.065 270.608 223.152 270.65 223.242 270.689C225.828 271.814 227.712 271.878 230.599 272.608C232.031 272.97 233.502 273.297 235.031 273.495C235.934 273.612 236.847 273.702 237.796 273.693C238.18 273.754 238.56 273.815 238.944 273.874C239.543 274.448 238.857 275.161 237.96 275.606C237.587 275.791 237.182 275.929 236.814 275.994C235.93 276.146 235.122 276.013 234.348 275.871C230.464 275.157 226.007 274.498 222.85 272.811C221.974 272.343 221.255 272.103 222.634 270.809C222.737 270.71 222.851 270.636 222.975 270.569Z" fill="#276ED8"/>
<path d="M237.352 280.661C237.369 280.835 237.275 281.046 237.014 281.313C236.747 281.582 236.375 281.719 236.016 281.774C235.06 281.919 234.159 281.57 233.309 281.227C231.466 280.482 229.493 280.019 227.7 279.267C227.202 279.058 225.679 278.405 227.113 277.703C227.818 277.357 228.966 277.741 229.558 277.945C230.889 278.401 232.232 278.834 233.585 279.238C234.27 279.442 234.958 279.671 235.651 279.847C236.13 279.97 237.296 280.115 237.352 280.661Z" fill="#276ED8"/>
<path d="M264.501 288.402C262.608 288.087 260.815 287.747 258.73 287.204C258.778 287.174 258.946 287.045 258.996 287.014C265.501 283.305 270.476 276.74 271.83 269.481C271.837 269.439 271.848 269.402 271.856 269.363C273.356 270.332 274.539 271.626 276.178 272.179C274.332 278.599 269.83 284.184 264.501 288.402Z" fill="#276ED8"/>
<path d="M279.093 289.081C276.712 288.787 275.192 288.549 272.826 288.2C272.92 288.141 273.018 288.083 273.122 288.032C279.068 285.079 282.351 279.005 281.07 272.978C281.032 272.791 281.013 272.611 281.013 272.437C282.812 272.383 284.704 272.823 286.466 272.97C287.285 278.965 285.614 284.614 279.093 289.081Z" fill="#276ED8"/>
<path opacity="0.33" d="M265.341 288.344C264.812 288.252 264.288 288.157 263.765 288.058C262.549 287.686 261.349 287.27 260.174 286.807C263.465 284.839 266.353 282.109 268.552 278.911C269.611 279.332 270.706 279.681 271.806 280.013C272.123 280.16 272.446 280.305 272.766 280.444C270.699 283.413 268.136 286.078 265.341 288.344Z" fill="white"/>
<path opacity="0.33" d="M273.495 277.574C273.351 277.821 273.205 278.066 273.052 278.311C271.645 277.627 270.234 276.917 268.758 276.357C268.839 276.215 268.916 276.068 268.994 275.925C270.487 276.486 271.987 277.035 273.495 277.574Z" fill="white"/>
<path opacity="0.33" d="M282.638 279.832C283.63 280.138 284.643 280.427 285.686 280.616C285.581 280.915 285.471 281.21 285.345 281.507C283.671 280.952 281.97 280.456 280.275 279.949C280.374 279.693 280.462 279.437 280.542 279.175C281.242 279.395 281.939 279.615 282.638 279.832Z" fill="white"/>
<path opacity="0.33" d="M280.404 282.074C281.981 282.587 283.563 283.088 285.13 283.625C283.955 285.559 282.273 287.373 279.973 289.022C277.686 288.718 276.228 288.473 273.957 288.113C274.048 288.053 274.143 287.995 274.243 287.943C276.898 286.559 279.01 284.498 280.404 282.074Z" fill="white"/>
<path d="M278.977 291.282C277.31 291.617 275.378 291.765 273.341 291.661C268.96 291.437 264.811 291.278 263.558 289.628C263.179 289.128 263.599 287.452 263.686 286.909C264.061 284.574 268.992 282.92 274.698 283.211C278.197 283.391 281.053 284.171 282.884 285.238C283.176 285.407 283.623 285.816 283.615 286.208C283.611 286.437 283.396 288.015 283.027 288.32C281.806 289.327 280.219 290.315 278.977 291.282Z" fill="#194484"/>
<path d="M277.962 292.136C276.963 292.851 275.81 293.26 274.673 293.271C274.227 293.274 273.771 293.268 273.311 293.25C267.648 293.021 263.343 291.139 263.7 289.045C264.057 286.951 268.939 285.439 274.604 285.671C278.393 285.824 281.568 286.718 283.151 287.922C283.298 288.035 283.279 288.279 283.109 288.408C281.421 289.69 279.688 290.904 277.962 292.136Z" fill="#06B25F"/>
<path opacity="0.33" d="M251.133 274.283C255.051 274.215 258.015 276.675 257.754 279.778C257.493 282.881 254.105 285.452 250.188 285.52C246.27 285.588 243.306 283.128 243.567 280.025C243.828 276.922 247.216 274.351 251.133 274.283Z" fill="white"/>
<path d="M255.398 279.805C255.581 277.985 253.61 276.556 250.996 276.61C248.382 276.665 246.115 278.184 245.935 280.002C245.753 281.822 247.724 283.251 250.338 283.197C252.947 283.141 255.215 281.622 255.398 279.805Z" fill="#276ED8"/>
<path opacity="0.33" d="M253.221 279.85C253.32 278.868 252.254 278.093 250.843 278.125C249.431 278.153 248.206 278.975 248.107 279.957C248.008 280.939 249.074 281.713 250.485 281.682C251.9 281.652 253.122 280.832 253.221 279.85Z" fill="white"/>
<path opacity="0.33" d="M233.108 270.418C233.181 269.696 232.397 269.124 231.355 269.147C230.316 269.169 229.413 269.772 229.342 270.497C229.269 271.219 230.053 271.79 231.095 271.767C232.134 271.745 233.037 271.142 233.108 270.418Z" fill="white"/>
<path opacity="0.33" d="M256.21 259.904C257.006 259.281 257.167 258.171 256.569 257.423C255.972 256.675 254.839 256.573 254.043 257.195C253.247 257.818 253.087 258.928 253.684 259.676C254.282 260.423 255.414 260.526 256.21 259.904Z" fill="white"/>
<path opacity="0.33" d="M228.298 275.003C229.28 274.987 230.03 275.511 229.973 276.172C229.916 276.834 229.074 277.383 228.091 277.398C227.109 277.414 226.359 276.89 226.416 276.229C226.473 275.567 227.315 275.018 228.298 275.003Z" fill="white"/>
<path opacity="0.33" d="M232.401 281.91C232.493 281.24 231.749 280.741 230.735 280.801C229.721 280.861 228.824 281.453 228.731 282.123C228.639 282.793 229.383 283.292 230.397 283.232C231.412 283.174 232.306 282.582 232.401 281.91Z" fill="white"/>
<path d="M278.402 291.713C278.102 291.722 277.792 291.721 277.475 291.704C275.091 291.586 273.28 290.774 273.426 289.892C273.574 289.01 275.624 288.392 278.008 288.51C279.571 288.588 280.88 288.967 281.561 289.465C280.513 290.223 279.458 290.968 278.402 291.713Z" fill="#194484"/>
<path d="M269.251 290.664L268.033 290.282L266.484 291.505L266.452 291.87L269.219 291.03L269.251 290.664Z" fill="#194484"/>
<path d="M269.297 291.015L268.068 290.625L266.508 291.844L267.738 292.234L269.297 291.015Z" fill="#194484"/>
<path d="M271.164 288.892L269.947 288.509L268.397 289.733L268.366 290.098L271.13 289.259L271.164 288.892Z" fill="#194484"/>
<path d="M271.213 289.247L269.986 288.856L268.426 290.074L269.656 290.464L271.213 289.247Z" fill="#194484"/>
<path d="M273.107 287.101L271.89 286.718L270.34 287.942L270.309 288.307L273.076 287.466L273.107 287.101Z" fill="#194484"/>
<path d="M273.158 287.453L271.929 287.063L270.37 288.281L271.599 288.671L273.158 287.453Z" fill="#194484"/>
<path d="M228.248 282.771C228.238 282.77 228.228 282.771 228.221 282.769C228.18 282.766 228.284 282.772 228.248 282.771Z" fill="#194484"/>
<path opacity="0.43" d="M236.124 284.776C233.974 284.714 230.503 284.299 228.348 283.967C228.305 283.814 228.263 283.662 228.226 283.507C230.515 283.839 234.708 284.346 236.876 284.601C236.767 284.629 236.263 284.779 236.124 284.776Z" fill="#276ED8"/>
</g>
<path d="M226.152 110.584C226.134 111.656 225.262 112.529 224.173 112.529L222.085 112.511C221.014 112.493 220.143 111.62 220.143 110.529L220.27 96.95C220.288 95.8775 221.159 95.0049 222.249 95.0049L224.318 95.0231C225.389 95.0412 226.261 95.9138 226.261 97.0045L226.152 110.584Z" fill="#002E73"/>
<path d="M308.285 111.401C308.267 112.474 307.396 113.346 306.306 113.346L304.237 113.328C303.147 113.31 302.294 112.438 302.294 111.347L302.421 97.7674C302.439 96.6948 303.311 95.8223 304.4 95.8223L306.47 95.8404C307.559 95.8586 308.412 96.7312 308.412 97.8219L308.285 111.401Z" fill="#002E73"/>
<path d="M257.868 79.8076L259.03 60.9019L270.886 61.0291L272.284 79.953L257.868 79.8076Z" fill="#070059"/>
<path d="M302.345 88.1515C302.255 96.641 285.443 103.349 264.746 103.131C244.067 102.931 227.383 95.8774 227.455 87.4062C227.546 78.9168 244.376 72.2089 265.036 72.427C285.733 72.627 302.436 79.6621 302.345 88.1515Z" fill="#002E73"/>
<path d="M248.174 82.4081C262.353 82.1717 277.404 81.59 291.547 83.4442C296.068 84.135 301.187 86.1529 305.254 89.0251V88.7706C305.309 83.2625 300.897 78.7542 295.396 78.6996L233.813 78.0816C228.312 78.027 223.81 82.4444 223.755 87.9525V88.4797C229.583 82.099 239.787 82.5535 248.174 82.4081Z" fill="white"/>
<path d="M274.062 123.418C272.228 122.673 270.903 121.437 268.961 120.8C266.891 120.164 264.567 120.146 262.497 120.255C261.281 120.364 259.919 120.473 258.939 120.946C257.105 121.546 255.744 123.236 253.656 123.582C251.822 123.927 241.927 123.836 239.241 123.436C236.318 123.036 232.904 122.146 230.217 121.146C228.456 120.455 225.279 118.364 223.554 116.128C223.736 121.437 228.039 125.709 233.395 125.763C238.859 125.818 252.076 126.381 253.166 126.236C254.491 126.054 254.89 125.127 255.834 124.291C258.086 122.309 261.263 121.418 264.222 121.437C267.127 121.473 270.195 122.382 272.41 124.327C273.281 125.09 273.717 126.145 274.915 126.345C276.804 126.69 292.49 126.345 294.959 126.363C300.405 126.418 304.872 122.073 304.999 116.656C302.874 118.692 300.26 120.819 297.537 121.927C292.254 124.218 276.005 124.418 274.062 123.418Z" fill="white"/>
<path d="M305.27 89.0425C301.204 86.1703 296.084 84.1343 291.563 83.4617C277.402 81.6075 262.37 82.1892 248.191 82.4255C239.785 82.5528 229.582 82.0983 223.79 88.4972L223.518 115.711C223.518 115.856 223.536 116.001 223.536 116.147C225.261 118.383 228.456 120.473 230.199 121.164C232.886 122.164 236.299 123.055 239.222 123.455C241.909 123.855 251.803 123.945 253.637 123.6C255.725 123.255 257.087 121.546 258.92 120.964C259.901 120.492 261.244 120.382 262.479 120.273C264.548 120.164 266.872 120.201 268.942 120.819C270.885 121.455 272.228 122.691 274.044 123.436C275.986 124.436 292.253 124.236 297.518 121.964C300.223 120.873 302.838 118.728 304.98 116.692C304.98 116.638 304.98 116.583 304.98 116.529L305.27 89.0425Z" fill="#0B51B9"/>
<mask id="mask2_3242_485" style="mask-type:alpha" maskUnits="userSpaceOnUse" x="223" y="82" width="83" height="43">
<path d="M305.27 89.0425C301.204 86.1703 296.084 84.1343 291.563 83.4617C277.402 81.6075 262.37 82.1892 248.191 82.4255C239.785 82.5528 229.582 82.0983 223.79 88.4972L223.518 115.711C223.518 115.856 223.536 116.001 223.536 116.147C225.261 118.383 228.456 120.473 230.199 121.164C232.886 122.164 236.299 123.055 239.222 123.455C241.909 123.855 251.803 123.945 253.637 123.6C255.725 123.255 257.087 121.546 258.92 120.964C259.901 120.492 261.244 120.382 262.479 120.273C264.548 120.164 266.872 120.201 268.942 120.819C270.885 121.455 272.228 122.691 274.044 123.436C275.986 124.436 292.253 124.236 297.518 121.964C300.223 120.873 302.838 118.728 304.98 116.692C304.98 116.638 304.98 116.583 304.98 116.529L305.27 89.0425Z" fill="#0B51B9"/>
</mask>
<g mask="url(#mask2_3242_485)">
<g opacity="0.2">
<path opacity="0.2" d="M308.848 53.0658L195.669 122.708L195.723 118.454L308.903 48.812L308.848 53.0658Z" fill="white"/>
<path opacity="0.2" d="M308.559 82.9327L195.38 152.575L195.652 125.271L308.831 55.6284L308.559 82.9327Z" fill="white"/>
<path opacity="0.2" d="M308.431 95.4035L195.252 165.046L195.324 157.902L308.504 88.2593L308.431 95.4035Z" fill="white"/>
<path opacity="0.2" d="M308.377 101.457L195.198 171.1L195.234 168.046L308.413 98.4033L308.377 101.457Z" fill="white"/>
</g>
</g>
</g>
</g>
<path d="M148.093 215.219V210.922C148.093 210.13 147.453 209.489 146.661 209.489C145.87 209.489 145.229 210.13 145.229 210.922V210.964C142.648 206.963 139.84 203.378 138.302 201.493C137.803 200.879 136.901 200.784 136.288 201.289C135.674 201.788 135.583 202.69 136.084 203.303C138.878 206.728 141.087 209.767 142.81 212.427C142.053 212.184 141.256 212.586 141.008 213.333C140.757 214.084 141.163 214.896 141.913 215.144L145.078 216.2C148.232 221.938 148.577 225.257 147.625 226.208C146.61 227.223 142.882 226.871 135.723 222.554C131.385 219.937 126.554 216.324 121.616 212.045C123.644 210.212 125.676 208.281 127.689 206.268C134.868 199.088 141.009 191.665 145.23 185.124V185.14C145.23 185.932 145.87 186.572 146.662 186.572C147.453 186.572 148.094 185.932 148.094 185.14V180.843C148.094 180.709 148.038 180.588 148.002 180.462C151.292 174.269 151.847 170.025 149.65 167.828C145.391 163.569 134.128 170.739 127.793 175.392C127.155 175.859 127.018 176.756 127.487 177.394C127.952 178.029 128.849 178.166 129.488 177.7C139.779 170.143 146.108 168.333 147.625 169.853C148.546 170.774 148.312 173.953 145.045 179.873L141.913 180.917C141.163 181.166 140.758 181.977 141.008 182.729C141.253 183.466 142.033 183.864 142.781 183.638C138.673 189.994 132.681 197.223 125.665 204.243C123.604 206.303 121.525 208.269 119.455 210.134C117.384 208.269 115.305 206.303 113.244 204.243C106.227 197.223 100.236 189.994 96.1281 183.638C96.8759 183.864 97.656 183.466 97.9008 182.729C98.1511 181.977 97.7455 181.166 96.9959 180.917L93.8637 179.873C90.5969 173.953 90.3631 170.774 91.2835 169.853C92.8049 168.331 99.1355 170.144 109.435 177.711C110.07 178.178 110.969 178.041 111.436 177.405C111.904 176.769 111.767 175.872 111.129 175.403C104.792 170.743 93.5154 163.564 89.2586 167.828C87.0613 170.025 87.6171 174.269 90.9067 180.462C90.8708 180.589 90.8151 180.709 90.8151 180.843V185.14C90.8151 185.932 91.4555 186.572 92.2471 186.572C93.0386 186.572 93.6791 185.932 93.6791 185.14V185.124C97.8993 191.665 104.041 199.088 111.219 206.268C113.232 208.281 115.265 210.212 117.292 212.045C112.355 216.324 107.524 219.937 103.185 222.554C96.02 226.874 92.2933 227.217 91.2836 226.208C90.3322 225.257 90.6776 221.937 93.8317 216.199L96.9961 215.144C97.7457 214.896 98.1512 214.084 97.9009 213.333C97.653 212.587 96.8564 212.185 96.1003 212.427C97.8156 209.779 100.011 206.756 102.788 203.349C103.288 202.736 103.195 201.834 102.583 201.333C101.972 200.835 101.07 200.93 100.568 201.539C99.0376 203.416 96.2474 206.98 93.6791 210.963V210.922C93.6791 210.13 93.0387 209.489 92.2471 209.489C91.4556 209.489 90.8151 210.13 90.8151 210.922V215.219C90.8151 215.372 90.8732 215.512 90.9201 215.655C88.2348 220.734 86.7413 225.717 89.2586 228.234C90.1368 229.112 91.3408 229.55 92.8664 229.55C95.7024 229.55 99.6486 228.033 104.665 225.007C109.22 222.258 114.291 218.452 119.454 213.956C124.617 218.452 129.689 222.258 134.244 225.007C139.26 228.034 143.206 229.552 146.043 229.55C147.567 229.55 148.771 229.113 149.65 228.234C152.167 225.718 150.675 220.736 147.988 215.655C148.035 215.512 148.093 215.372 148.093 215.219Z" fill="#06B25F"/>
<path d="M105.131 185.146C105.131 185.938 105.771 186.579 106.563 186.579C107.355 186.579 107.996 185.938 107.996 185.146C107.996 184.356 108.638 183.714 109.428 183.714C110.218 183.714 110.86 184.356 110.86 185.146C110.86 185.937 110.218 186.579 109.428 186.579C108.636 186.579 107.996 187.219 107.996 188.011C107.996 188.803 108.636 189.443 109.428 189.443C110.218 189.443 110.86 190.086 110.86 190.876C110.86 191.666 110.218 192.308 109.428 192.308C108.638 192.308 107.996 191.666 107.996 190.876C107.996 190.084 107.355 189.443 106.563 189.443C105.771 189.443 105.131 190.084 105.131 190.876C105.131 193.245 107.058 195.173 109.428 195.173C111.797 195.173 113.725 193.245 113.725 190.876C113.725 189.776 113.31 188.772 112.628 188.011C113.31 187.25 113.725 186.246 113.725 185.146C113.725 182.777 111.797 180.849 109.428 180.849C107.058 180.849 105.131 182.777 105.131 185.146Z" fill="#06B25F"/>
<path d="M129.48 195.172C131.849 195.172 133.777 193.244 133.777 190.875V185.145C133.777 182.776 131.849 180.848 129.48 180.848C127.11 180.848 125.183 182.776 125.183 185.145V190.875C125.183 193.244 127.11 195.172 129.48 195.172ZM128.047 185.145C128.047 184.355 128.689 183.713 129.48 183.713C130.27 183.713 130.912 184.355 130.912 185.145V190.875C130.912 191.665 130.27 192.307 129.48 192.307C128.69 192.307 128.047 191.665 128.047 190.875V185.145Z" fill="#06B25F"/>
<path d="M119.454 195.172C121.823 195.172 123.751 193.244 123.751 190.875C123.751 188.505 121.823 186.578 119.454 186.578C119.013 186.578 118.597 186.663 118.197 186.787C118.521 185.484 119.469 183.713 122.318 183.713C123.11 183.713 123.751 183.072 123.751 182.281C123.751 181.489 123.11 180.848 122.318 180.848C116.653 180.848 115.156 185.533 115.156 188.01V190.875C115.156 193.244 117.084 195.172 119.454 195.172ZM119.454 189.443C120.244 189.443 120.886 190.085 120.886 190.875C120.886 191.665 120.244 192.307 119.454 192.307C118.663 192.307 118.021 191.665 118.021 190.875C118.021 190.085 118.663 189.443 119.454 189.443Z" fill="#06B25F"/>
<path d="M139.506 180.849C139.506 179.27 138.221 177.984 136.642 177.984C135.062 177.984 133.777 179.27 133.777 180.849C133.777 182.428 135.062 183.714 136.642 183.714C138.221 183.714 139.506 182.428 139.506 180.849Z" fill="#06B25F"/>
</g>
<defs>
<filter id="filter0_d_3242_485" x="211.682" y="247.746" width="82.9766" height="57.5259" filterUnits="userSpaceOnUse" color-interpolation-filters="sRGB">
<feFlood flood-opacity="0" result="BackgroundImageFix"/>
<feColorMatrix in="SourceAlpha" type="matrix" values="0 0 0 0 0 0 0 0 0 0 0 0 0 0 0 0 0 0 127 0" result="hardAlpha"/>
<feOffset dy="4"/>
<feGaussianBlur stdDeviation="4"/>
<feColorMatrix type="matrix" values="0 0 0 0 0.0771528 0 0 0 0 0.152763 0 0 0 0 0.420833 0 0 0 0.25 0"/>
<feBlend mode="normal" in2="BackgroundImageFix" result="effect1_dropShadow_3242_485"/>
<feBlend mode="normal" in="SourceGraphic" in2="effect1_dropShadow_3242_485" result="shape"/>
</filter>
<linearGradient id="paint0_linear_3242_485" x1="188.343" y1="51.0635" x2="125.338" y2="392.621" gradientUnits="userSpaceOnUse">
<stop offset="0.0041841" stop-color="#0214BE"/>
<stop offset="0.2856" stop-color="#0016D9"/>
<stop offset="1" stop-color="#2051FE"/>
</linearGradient>
<radialGradient id="paint1_radial_3242_485" cx="0" cy="0" r="1" gradientUnits="userSpaceOnUse" gradientTransform="translate(187.431 262.018) rotate(-58.9328) scale(253.04 195.758)">
<stop stop-color="#0F7C47"/>
<stop offset="1" stop-color="#3EE695"/>
</radialGradient>
<radialGradient id="paint2_radial_3242_485" cx="0" cy="0" r="1" gradientUnits="userSpaceOnUse" gradientTransform="translate(220.735 87.1883) rotate(-43.5543) scale(50.0868 55.3274)">
<stop stop-color="#21B16C"/>
<stop offset="1" stop-color="#39DB8D"/>
</radialGradient>
<linearGradient id="paint3_linear_3242_485" x1="249.611" y1="51.4917" x2="315.345" y2="91.9093" gradientUnits="userSpaceOnUse">
<stop stop-color="#29CF7F"/>
<stop offset="1" stop-color="#36D387"/>
</linearGradient>
<clipPath id="clip0_3242_485">
<rect width="516" height="484" fill="white"/>
</clipPath>
</defs>
</svg>
