<svg width="40" height="40" viewBox="0 0 41 40" fill="none" xmlns="http://www.w3.org/2000/svg">
<g clip-path="url(#clip0_62_824)">
<path d="M20.0087 0.00399017H19.9987C8.97349 0.00399017 0.0078125 8.97216 0.0078125 19.9999C0.0078125 24.374 1.41753 28.4282 3.81454 31.72L1.32254 39.1485L9.00848 36.6915C12.1703 38.7861 15.9421 39.9958 20.0087 39.9958C31.034 39.9958 39.9997 31.0252 39.9997 19.9999C39.9997 8.97466 31.034 0.00399017 20.0087 0.00399017ZM31.6439 28.2407C31.1615 29.603 29.2469 30.7327 27.7197 31.0627C26.6749 31.2851 25.3102 31.4626 20.7161 29.558C14.8398 27.1235 11.0556 21.1522 10.7606 20.7648C10.4782 20.3773 8.38611 17.6029 8.38611 14.7335C8.38611 11.8641 9.84331 10.4669 10.4307 9.86698C10.9131 9.37458 11.7104 9.14963 12.4753 9.14963C12.7227 9.14963 12.9452 9.16213 13.1451 9.17212C13.7325 9.19712 14.0275 9.23211 14.4149 10.1594C14.8973 11.3217 16.072 14.1911 16.212 14.486C16.3545 14.781 16.497 15.1809 16.297 15.5683C16.1095 15.9682 15.9446 16.1457 15.6496 16.4856C15.3547 16.8256 15.0747 17.0855 14.7798 17.4504C14.5099 17.7679 14.2049 18.1078 14.5449 18.6952C14.8848 19.2701 16.0595 21.1872 17.7892 22.7269C20.0212 24.714 21.8309 25.3488 22.4782 25.6188C22.9606 25.8187 23.5355 25.7712 23.888 25.3963C24.3354 24.9139 24.8877 24.1141 25.4501 23.3267C25.8501 22.7619 26.355 22.6919 26.8848 22.8918C27.4247 23.0793 30.2817 24.4915 30.869 24.7839C31.4564 25.0789 31.8438 25.2189 31.9863 25.4663C32.1263 25.7138 32.1263 26.876 31.6439 28.2407Z" fill="white"/>
</g>
<defs>
<clipPath id="clip0_62_824">
<rect width="40" height="40" fill="white" transform="translate(0.00341797 -0.00012207)"/>
</clipPath>
</defs>
</svg>
